<svg role="img" viewBox="0 0 24 24" xmlns="http://www.w3.org/2000/svg" fill="white"><title>Epic Games</title><path d="M3.537 0C2.165 0 1.66.506 1.66 1.879V18.44a4.262 4.262 0 00.02.433c.031.3.037.59.316.92.027.033.311.245.311.245.153.075.258.13.43.2l8.335 3.491c.433.199.614.276.928.27h.002c.314.006.495-.071.928-.27l8.335-3.492c.172-.07.277-.124.43-.2 0 0 .284-.211.311-.243.28-.33.285-.621.316-.92a4.261 4.261 0 00.02-.434V1.879c0-1.373-.506-1.88-1.878-1.88zm13.366 3.11h.68c1.138 0 1.688.553 1.688 1.696v1.88h-1.374v-1.8c0-.369-.17-.54-.523-.54h-.235c-.367 0-.537.17-.537.539v5.81c0 .369.17.54.537.54h.262c.353 0 .523-.171.523-.54V8.619h1.373v2.143c0 1.144-.562 1.71-1.7 1.71h-.694c-1.138 0-1.7-.566-1.7-1.71V4.82c0-1.144.562-1.709 1.7-1.709zm-12.186.08h3.114v1.274H6.117v2.603h1.648v1.275H6.117v2.774h1.74v1.275h-3.14zm3.816 0h2.198c1.138 0 1.7.564 1.7 1.708v2.445c0 1.144-.562 1.71-1.7 1.71h-.799v3.338h-1.4zm4.53 0h1.4v9.201h-1.4zm-3.13 1.235v3.392h.575c.354 0 .523-.171.523-.54V4.965c0-.368-.17-.54-.523-.54zm-3.74 10.147a1.708 1.708 0 01.591.108 1.745 1.745 0 01.49.299l-.452.546a1.247 1.247 0 00-.308-.195.91.91 0 00-.363-.068.658.658 0 00-.28.06.703.703 0 00-.224.163.783.783 0 00-.151.243.799.799 0 00-.056.299v.008a.852.852 0 00.056.31.7.7 0 00.157.245.736.736 0 00.238.16.774.774 0 00.303.058.79.79 0 00.445-.116v-.339h-.48v-.592h1.14v1.273a1.85 1.85 0 01-.553.338 1.814 1.814 0 01-.675.12 1.762 1.762 0 01-.643-.114 1.528 1.528 0 01-.511-.32 1.46 1.46 0 01-.337-.488 1.584 1.584 0 01-.12-.624v-.008c0-.22.04-.428.12-.621a1.55 1.55 0 01.333-.499 1.54 1.54 0 01.503-.332zm6.43.016h.721l1.145 2.95h-.759l-.24-.65h-1.025l-.237.65h-.742zm.354.776l-.333.916h.664zm-4.849-.776h.7v2.95h-.7zm1.327 0h.657l1.046 1.47v-1.47h.692v2.95h-.61l-1.093-1.53v1.53h-.692z"/></svg>
